<svg class="" width="24" height="24" viewBox="0 0 1024 1024" xmlns="http://www.w3.org/2000/svg" style="display: inline-block; vertical-align: middle;"><path d="M651.093 934.229l-99.499-138.923c-26.539-37.12-48.085-66.005-49.237-66.005s-42.923 56.064-98.816 132.821c-53.248 73.131-97.28 132.864-97.92 132.864-1.408 0-191.915-134.144-192.427-135.552-0.256-0.683 42.88-63.915 95.659-140.501 52.907-76.587 96.171-140.373 96.171-141.909 0-2.347-17.408-8.235-151.765-53.12l-153.259-51.157c-1.28-0.768 6.656-27.307 33.835-113.067 19.627-61.696 36.011-112.64 36.48-113.28 0.597-0.683 72.96 22.357 160.939 51.413 88.021 29.013 160.64 52.651 161.621 52.651 0.939 0 1.963-1.28 2.261-2.987 0.427-1.28 1.28-76.203 1.707-166.4 0.853-89.6 1.707-163.84 2.133-165.12 0.853-1.28 25.6-1.28 116.48-1.28 63.317 0 115.755 0.64 116.608 1.28 1.067 0.683 2.773 50.603 5.803 161.28 4.693 182.4 4.693 184.96 7.68 184.96 1.067 0 70.827-23.040 154.88-52.053 84.181-28.16 153.259-51.2 153.813-50.603 1.28 1.877 70.4 226.56 69.76 227.2-0.725 0.683-71.125 24.96-156.16 53.76-117.76 39.68-155.605 53.12-155.605 55.040-0.597 1.28 39.68 62.080 91.563 136.96 50.517 74.24 91.435 135.040 91.435 135.68-0.64 1.963-189.44 140.885-191.275 140.885-0.64 0-24.96-32.683-53.12-72.32l0.213-2.859z" style="fill: rgb(0, 0, 0);"></path></svg>
