<svg class="" width="24" height="24" viewBox="0 0 762 1024" xmlns="http://www.w3.org/2000/svg" style="display: inline-block; vertical-align: middle;"><path d="M320.881 752.426c-1.548-18.998-4.063-43.060-5.392-39.799-2.021 4.995-2.357 55.961-0.713 146.568 1.473 81.317-2.727 149.589-4.83 151.692-7.372 7.379-30.947-3.391-38.552-17.608-4.419-8.256-8.989-64.024-10.736-131.029-1.795-68.635-6.714-127.953-11.962-144.074-5.426-16.662-6.591-31.748-2.994-38.49 3.261-6.098 4.022-12.99 1.699-15.312-2.323-2.329-3.967-13.531-3.645-24.884 0.507-17.82-1.857-20.656-17.196-20.656-18.512 0-84.071 37.962-84.071 48.678 0 3.371 6.166 6.132 13.702 6.132 7.612 0 13.702 4.57 13.702 10.277 0 12.38-22.438 13.504-40.778 2.049-10.448-6.529-16.916-6.235-31.18 1.391-21.047 11.27-36.613 4.542-49.068-21.198-9.653-19.937-11.003-28.796-9.955-65.066 0.671-23.089 3.926-29.44 18.539-36.099l17.724-8.078-21.026-23.952c-29.947-34.112-39.942-56.317-49.15-109.194-9.030-51.85-5.125-170.56 6.92-210.386 10.133-33.489 91.1-119.533 145.793-154.926 68.882-44.574 118.245-58.256 210.866-58.454 68.923-0.144 85.989 2.281 136.346 19.403 109.002 37.058 195.204 107.947 235.873 193.971 19.293 40.806 21.554 52.076 20.944 104.001-0.48 40.032-7.434 85.777-22.225 146.328-22.486 92.046-25.404 117.827-15.169 134.003 18.135 28.659-52.329 104.707-85.291 92.059-8.77-3.357-10.311-9.592-6.879-27.871 5.549-29.57-4.974-43.135-33.208-42.813-37.257 0.425-53.35 14.285-56.098 48.328-1.343 16.621-8.735 48.424-16.429 70.684-10.181 29.453-13.983 57.81-13.983 104.2 0 35.051-3.439 86.805-7.625 114.997-7.173 48.219-8.859 51.692-28.426 58.509-11.441 3.994-21.883 7.255-23.212 7.255-1.315 0-2.398-66.813-2.398-148.472 0-127.85 1.555-150.199 11.209-160.859 10.386-11.476 10.366-12.702-0.301-16.792-6.324-2.432-13.476-2.439-15.895-0.027-2.418 2.425-5.207 63.696-6.193 136.161-2.131 156.2-6.543 185.661-28.302 188.764l-15.319 2.186v-153.892c0-130.481-1.569-154.501-10.277-157.845-8.955-3.432-10.277 16.361-10.277 153.419v157.365h-47.958c-0.562-90.278 0.021-180.577-6.605-270.643zM437.091 598.555c0-5.94-8.482-23.075-18.841-38.086l-18.841-27.281-2.165 22.506c-1.192 12.38 3.432 34.592 10.277 49.363 10.976 23.685 13.449 25.528 21.006 15.573 4.714-6.193 8.564-16.135 8.564-22.075zM363.18 585.976c6.728-17.731 12.243-39.538 12.243-48.486 0.007-13.668-1.624-14.901-10.27-7.728-5.652 4.7-10.277 12.366-10.277 17.046s-6.563 16.854-14.579 27.049c-12.401 15.771-13.387 21.156-6.591 36.072 9.619 21.115 13.572 17.902 29.474-23.952zM316.749 502.494l26.959-11.346-78.343-41.559c-134.338-71.28-191.731-98.554-198.534-94.355-20.492 12.668 10.845 117.066 39.785 132.55 12.421 6.646 86.983 24.678 124.938 30.214 23.411 3.419 53.056-1.98 85.195-15.504zM604.945 505.029c22.602-5.406 48.815-15.47 58.235-22.369 20.43-14.97 40.21-62.791 40.73-98.486 0.343-23.561-1.192-25.685-18.464-25.623-23.061 0.082-79.734 25.87-123.39 56.139-17.861 12.387-56.762 35.236-86.442 50.774l-53.96 28.247 29.981 10.866c52.055 18.875 75.993 18.944 153.309 0.452z" style="fill: rgb(0, 0, 0);"></path></svg>

