<svg class="" width="24" height="24" viewBox="0 0 1024 1024" xmlns="http://www.w3.org/2000/svg" style="display: inline-block; vertical-align: middle;"><path d="M674.11 360.666c-22.866 22.866-22.864 60.074 0.004 82.944 11.074 11.078 25.808 17.178 41.472 17.178 15.668 0 30.398-6.1 41.478-17.178 0.682-0.682 17.086-17.83 40.522-106.024 2.134-8.034 4.136-15.944 5.996-23.548-63.436 15.638-117.354 34.512-129.472 46.628z" style="fill: rgb(0, 0, 0);"></path><path d="M368.158 401.818c0-2.060 0.18-4.072 0.438-6.060-1.428-12.976-7.068-25.568-16.996-35.492-0.696-0.698-18.042-17.294-107.004-40.938-8.298-2.204-16.464-4.27-24.302-6.178 15.81 64.238 34.946 118.93 47.222 131.208 11.226 11.224 26.162 17.408 42.042 17.408s30.816-6.184 42.050-17.414c10.050-10.054 15.73-22.842 17.064-35.996-0.306-2.142-0.514-4.316-0.514-6.538z" style="fill: rgb(0, 0, 0);"></path><path d="M512.222 0h-0.45c25.706 0 46.546 20.84 46.546 46.546v308.732h13.004c7.144-22.11 19.434-42.902 36.96-60.432 32.688-32.69 115.432-57.63 179.038-72.79 19.354-4.612 36.886-8.306 50.744-11.052 6.978-1.38 13.070-2.532 17.91-3.42 15.068-2.756 30.482 2.060 41.288 12.872 10.812 10.81 15.624 26.246 12.872 41.286-2.468 13.492-6.902 36.272-13.12 62.898-6.97 29.86-16.188 64.558-27.446 96.57-12.98 36.902-28.65 70.19-46.688 88.232-28.666 28.66-66.774 44.442-107.302 44.442s-78.636-15.782-107.296-44.438c-17.696-17.7-30.056-38.722-37.168-61.076h-116.196c-7.124 22.624-19.596 43.914-37.496 61.816-28.818 28.812-67.128 44.678-107.874 44.678s-79.056-15.866-107.868-44.674c-18.262-18.262-34.112-52.078-47.224-89.504-11.208-32.002-20.4-66.6-27.366-96.432-6.274-26.872-10.756-49.868-13.244-63.482-2.752-15.044 2.060-30.474 12.872-41.288 10.814-10.812 26.246-15.626 41.288-12.872 4.986 0.912 11.298 2.108 18.534 3.544 13.93 2.764 31.474 6.466 50.818 11.078 64.028 15.274 147.202 40.362 180.056 73.216 17.644 17.64 30.010 38.576 37.184 60.832h10.618v-308.736c0.002-25.706 20.842-46.546 46.546-46.546h-0.024c-249.086 0.134-451.746 202.904-451.746 452.002v119.99c0 248.72 202.044 451.236 450.65 451.984 0.012 0 0.024 0.004 0.040 0.004 0.446 0.012 0.906 0.018 1.318 0.018 0.41 0 0.862-0.006 1.304-0.018 0.012 0 0.022 0 0.032-0.004 248.602-0.724 450.672-203.248 450.672-451.984v-119.992c-0.004-249.096-202.662-451.866-451.786-452zM465.23 574.060c0-25.706 20.84-46.546 46.546-46.546s46.546 20.84 46.546 46.546v31.030c0 25.706-20.84 46.546-46.546 46.546s-46.546-20.84-46.546-46.546v-31.030zM649.198 806.788h-274.388c-25.706 0-46.546-20.84-46.546-46.546s20.84-46.546 46.546-46.546h274.388c25.706 0 46.546 20.84 46.546 46.546s-20.84 46.546-46.546 46.546z" style="fill: rgb(0, 0, 0);"></path></svg>
